<svg xmlns="http://www.w3.org/2000/svg" xmlns:xlink="http://www.w3.org/1999/xlink" xmlns:inkscape="http://www.inkscape.org/namespaces/inkscape" version="1.1" width="451" height="97" viewBox="0 0 451 97">
<defs>
<clipPath id="clip_0">
<path transform="matrix(1,0,0,-1,-16,296)" d="M16 199H467V296H16Z" clip-rule="evenodd"/>
</clipPath>
</defs>
<g>
<g clip-path="url(#clip_0)">
<path transform="matrix(1,0,0,1,-16,-193)" d="M157.949 218.477C157.949 224.023 153.449 228 147.148 228 140.926 228 136.352 224.023 136.352 218.477V201.676H140.852V218.477C140.852 221.852 143.398 224.102 147.148 224.102 150.977 224.102 153.449 221.926 153.449 218.477V201.676H157.949ZM165.898 211.273V209.023H161.773V227.477H165.898V214.426C167.625 213 169.648 212.176 171.301 212.176 173.176 212.176 174.676 213.301 174.676 215.699V227.398H178.801V215.398C178.801 210.676 175.875 208.5 172.5 208.5 170.324 208.5 167.852 209.398 165.898 211.273ZM182.852 227.477H186.977V209.023H182.852ZM187.426 203.926C187.426 202.574 186.301 201.523 184.949 201.523 183.602 201.523 182.477 202.648 182.477 203.926 182.477 205.273 183.602 206.324 184.949 206.324 186.301 206.324 187.426 205.273 187.426 203.926M208.352 209.023H203.926L198.75 222.977 193.574 209.023H189.148L196.5 227.477H200.926ZM213.301 216.375C213.824 213.824 215.551 212.176 218.102 212.176 220.801 212.176 222.148 213.824 222.523 216.375H213.301M226.727 218.398C226.727 212.699 223.727 208.5 217.949 208.5 212.477 208.5 208.875 212.852 208.875 218.25 208.875 223.648 212.551 228 218.023 228 220.426 228 223.051 227.102 225.148 225.523L224.176 222.824C222.148 223.875 220.199 224.398 218.324 224.398 215.551 224.398 213.676 222.523 213.301 219.602 213.301 219.523 213.301 219.375 213.227 219.301H226.727C226.727 219 226.727 218.699 226.727 218.398M241.727 208.5C241.574 208.5 241.426 208.5 241.199 208.5 238.875 208.5 236.176 209.551 234 211.574V209.023H229.875V227.477H234V215.023C235.949 213.375 238.273 212.477 240.375 212.477 240.602 212.477 240.75 212.477 240.977 212.477L241.727 208.5M243.148 214.199C243.148 217.426 245.25 218.477 249.977 219.75 252.449 220.426 254.102 220.648 254.102 222.227 254.102 223.727 252.375 224.625 250.125 224.625 247.949 224.625 245.625 223.801 244.426 222.301L242.699 225C244.199 226.875 247.273 227.926 250.273 227.926 253.949 227.926 258.227 226.352 258.227 222.074 258.227 217.875 254.176 216.977 251.176 216.227 248.102 215.398 247.273 215.023 247.352 213.898 247.352 212.477 248.773 211.727 250.727 211.727 252.676 211.727 254.773 212.324 255.898 213.523L257.625 210.824C255.824 209.102 252.977 208.426 250.574 208.426 246.824 208.5 243.148 210 243.148 214.199ZM261.227 227.477H265.352V209.023H261.227ZM265.801 203.926C265.801 202.574 264.676 201.523 263.324 201.523 261.977 201.523 260.852 202.648 260.852 203.926 260.852 205.273 261.977 206.324 263.324 206.324 264.676 206.324 265.801 205.273 265.801 203.926M280.648 223.949C279.824 224.25 278.926 224.477 278.023 224.477 276.602 224.477 275.477 223.875 275.477 222.074V212.398H280.727V209.102H275.477V204H271.352V209.102H271.199L267.75 209.773V212.398H271.352V222.375C271.352 226.5 274.051 228.074 276.977 228.074 278.551 228.074 280.199 227.625 281.625 226.801ZM302.625 209.023H298.273L292.949 222.375 287.324 209.023H282.824L290.926 227.398 288 234.824H291.824ZM317.176 218.25C317.176 214.727 319.125 212.25 322.426 212.25 325.648 212.25 327.602 214.727 327.602 218.25 327.602 221.852 325.648 224.25 322.426 224.25 319.199 224.25 317.176 221.773 317.176 218.25M331.875 218.25C331.875 212.852 328.125 208.5 322.426 208.5 316.727 208.426 312.977 212.773 312.977 218.25 312.977 223.648 316.727 228 322.426 228 328.125 228 331.875 223.648 331.875 218.25M341.023 207.977C341.023 205.727 342.074 204.449 343.875 204.449 345.074 204.449 346.352 204.75 347.773 205.273L348.75 202.426C346.875 201.449 344.926 200.926 343.199 200.926 339.602 200.926 336.824 203.176 336.824 208.199V209.023H336.75L333.301 209.699V212.324H336.898V227.477H341.023V212.324H346.273V209.023H341.023V207.977M127.5 239.926C123.898 236.699 118.648 234.602 112.273 234.602 103.949 234.602 96.227 238.199 96.148 247.574 96.148 255 100.875 257.102 110.852 259.875 116.699 261.449 119.25 262.125 119.176 265.273 119.176 268.273 116.551 270.301 111.898 270.301 107.625 270.301 102.676 268.5 100.051 265.273L95.023 270.898C98.551 275.398 105.449 278.023 111.824 278.023 119.25 278.023 128.25 274.352 128.25 264.977 128.176 255.977 119.926 253.949 113.625 252.301 106.273 250.352 105.148 249.523 105.227 247.199 105.449 243.676 108.148 242.398 112.125 242.398 116.477 242.398 120.074 243.898 122.551 245.852L127.5 239.926M139.727 262.273C139.648 257.25 142.5 253.648 147.148 253.648 151.727 253.648 154.574 257.176 154.574 262.273 154.574 267.375 151.727 270.898 147.148 270.898 142.648 270.898 139.727 267.301 139.727 262.273M163.125 262.273C163.125 253.574 156.898 246.523 147.227 246.523 137.625 246.449 131.324 253.5 131.324 262.273 131.324 270.977 137.625 278.023 147.227 278.023 156.824 278.023 163.125 270.977 163.125 262.273M195.074 247.352H186.75V267.824C184.426 269.773 181.648 270.898 179.25 270.898 176.551 270.898 174.75 269.176 174.75 265.801V247.426H166.426V266.852C166.426 274.574 171 278.023 176.477 278.023 179.926 278.023 183.676 276.523 186.75 273.602V277.199H195.074ZM219.449 270.375C218.102 270.824 216.676 271.125 215.398 271.125 213.148 271.125 211.574 270.148 211.574 267.301V253.801H219.602V247.352H211.574V239.25H203.25V247.352H203.102L197.551 248.551V253.801H203.25V268.352C203.25 275.324 207.824 277.949 212.926 277.949 215.699 277.949 218.625 277.199 221.176 275.926ZM232.5 251.023V235.5H224.176V277.273H232.5V256.801C234.824 254.852 237.676 253.727 240 253.727 242.852 253.727 245.023 255.301 245.023 258.824V277.199H253.352V257.773C253.352 250.051 248.625 246.602 243.148 246.602 239.551 246.523 235.574 248.102 232.5 251.023ZM278.852 267.449C276.523 269.773 273.449 270.977 271.125 270.977 267.148 270.977 264.898 267.523 264.898 262.273 264.898 257.023 267.301 253.574 271.125 253.574 273.449 253.574 276.523 254.773 278.852 257.102V267.449M287.176 247.352H278.852V250.574C275.852 247.801 272.477 246.523 269.25 246.523 261.676 246.523 256.352 253.5 256.352 262.273 256.352 271.051 261.676 278.023 269.25 278.023 272.477 278.023 275.852 276.824 278.852 273.977V277.199H287.176ZM318.977 251.477C317.25 248.102 314.102 246.602 310.5 246.602 307.051 246.602 303.301 248.102 300.301 251.023V247.426H291.977V277.273H300.301V256.727C302.477 254.852 305.102 253.727 307.273 253.727 309.898 253.727 311.926 255.301 311.926 258.824V277.199H320.25V257.773C320.25 257.324 320.25 256.801 320.176 256.426 322.426 254.699 324.977 253.727 327.074 253.727 329.773 253.727 331.801 255.301 331.801 258.898V277.273H340.125V257.852C340.125 250.125 335.625 246.676 330.301 246.676 326.551 246.523 322.273 248.25 318.977 251.477ZM367.801 262.273C367.801 267.898 365.176 270.977 361.5 271.051 359.023 271.051 356.102 269.699 353.699 267.227V257.176C356.102 254.773 359.102 253.574 361.5 253.574 365.477 253.574 367.801 257.176 367.801 262.273M353.699 250.574V247.352H345.375V289.125H353.699V274.125C356.551 276.75 360 278.023 363.148 278.023 370.5 278.023 376.273 271.727 376.273 262.273 376.273 253.5 371.023 246.523 363.227 246.523 359.926 246.523 356.551 247.949 353.699 250.574ZM399.523 270.375C398.176 270.824 396.75 271.125 395.477 271.125 393.227 271.125 391.648 270.148 391.648 267.301V253.801H399.676V247.352H391.648V239.25H383.25V247.352H383.102L377.551 248.551V253.801H383.25V268.352C383.25 275.324 387.824 277.949 392.926 277.949 395.699 277.949 398.625 277.199 401.176 275.926ZM410.551 262.273C410.477 257.25 413.324 253.648 417.977 253.648 422.551 253.648 425.398 257.176 425.398 262.273 425.398 267.375 422.551 270.898 417.977 270.898 413.398 270.898 410.551 267.301 410.551 262.273M433.875 262.273C433.875 253.574 427.648 246.523 417.977 246.523 408.375 246.449 402.074 253.5 402.074 262.273 402.074 270.977 408.375 278.023 417.977 278.023 427.648 278.023 433.875 270.977 433.875 262.273M445.426 251.023V247.426H437.102V277.273H445.426V256.875C447.898 254.926 450.824 253.801 453.074 253.801 455.773 253.801 457.875 255.375 457.875 258.898V277.273H466.199V257.852C466.199 250.125 461.477 246.676 456 246.676 452.625 246.523 448.648 248.023 445.426 251.023ZM445.426 251.023" fill="#00557f"/>
<path transform="matrix(1,0,0,1,-16,-193)" d="M86.926 213.449C86.852 213.449 85.949 214.199 84.977 214.426 84.898 215.176 84.523 215.926 83.852 216.449 83.324 216.824 82.801 216.977 82.199 216.977 81.977 216.977 81.75 216.977 81.523 216.898 81 217.801 80.023 218.398 80.023 218.477L79.875 218.625 79.727 218.477C79.648 218.477 78.75 217.801 78.148 216.898 77.926 216.977 77.699 216.977 77.551 216.977 77.023 216.977 76.426 216.824 75.898 216.449 75.227 215.926 74.852 215.25 74.773 214.426 73.801 214.199 72.824 213.449 72.824 213.449L72.676 213.301 72.75 213.074C72.75 213 73.125 211.949 73.727 211.125 73.352 210.449 73.199 209.625 73.426 208.875 73.648 208.199 74.176 207.602 74.773 207.301 74.852 207.301 74.926 207.227 75 207.227 74.926 206.176 75.301 205.125 75.301 205.051L75.375 204.824H75.602C75.676 204.824 76.801 204.824 77.773 205.199 78.301 204.602 79.051 204.227 79.875 204.227 80.699 204.227 81.449 204.602 81.977 205.199 82.949 204.824 84.074 204.824 84.148 204.824H84.375L84.449 205.051C84.449 205.125 84.824 206.176 84.75 207.227 84.824 207.227 84.898 207.301 84.898 207.301 85.574 207.602 86.023 208.199 86.25 208.875 86.477 209.699 86.398 210.523 85.949 211.125 86.625 211.949 86.926 213 87 213.074L87.074 213.301ZM82.727 253.574C80.477 260.625 77.176 266.699 72.898 271.648 67.801 277.648 61.199 282.074 53.398 284.773 45.602 282.074 39.074 277.648 33.898 271.648 29.625 266.699 26.324 260.551 24 253.574 20.852 243.977 20.477 235.125 20.398 231.898 21 231.676 21.824 231.375 22.801 231 23.477 233.023 24.977 234.898 27.449 236.625 30.75 238.949 34.273 239.926 34.426 240 34.426 240 41.625 242.102 45.898 243.375 48.602 244.273 48.523 246.227 48.074 247.648 48.074 247.727 48 247.801 48 247.875 47.926 248.023 47.852 248.25 47.773 248.398 47.699 248.551 47.625 248.773 47.551 248.926 47.398 248.773 47.176 247.199 44.176 245.699 41.176 244.199 36.676 244.875 36.148 245.176 35.926 245.324 35.852 245.398 36.074 245.625 36.227 245.699 36.375 245.773 36.449 245.926 37.125 246.676 37.051 248.324 39.148 250.5 39.824 251.102 40.5 251.551 41.25 251.926 44.25 253.352 45.602 252.676 46.125 252.602 46.125 252.676 46.051 252.824 46.051 252.898 41.477 260.926 39.676 267.824 39.449 273.602L40.352 274.352C42.148 275.852 44.023 277.199 46.051 278.477L47.699 279.449C49.5 280.426 51.375 281.25 53.324 282 58.727 279.977 63.449 277.125 67.5 273.375 67.5 273.375 68.023 272.852 68.324 272.551 67.727 272.477 67.125 272.477 66.523 272.398 58.801 272.102 56.551 269.023 57.898 264.375 57.977 264.227 58.199 263.773 57.898 263.477 57.676 263.25 57.227 263.398 57.074 263.477 49.125 267.227 46.875 278.477 46.875 278.477 46.875 278.477 46.574 269.551 52.801 263.551 59.023 257.551 64.273 258.75 64.5 258.75 67.051 259.352 67.574 257.852 67.727 256.648 67.727 256.5 67.801 256.352 67.949 256.199 69.148 255.375 70.426 252.148 69.074 250.949 68.398 250.352 65.852 249.676 65.176 249.449 64.574 249.227 64.051 249.074 63.523 248.773 63.227 248.625 62.926 248.398 62.773 248.023 62.324 246.676 61.051 246 60.75 245.773 63.375 245.176 66.227 243.676 69.227 241.352 70.125 240.602 70.875 239.852 71.477 239.023 72.074 238.352 72.074 237.676 73.125 237.227 75.301 236.176 75.227 235.051 74.852 234.676 74.477 234.301 73.125 234.824 72.977 234.977 73.051 234.375 72.977 233.699 72.898 233.102V233.023C72.898 232.949 72.898 232.949 72.898 232.875 72.898 232.801 72.898 232.727 72.824 232.574V232.5C72.375 230.324 71.176 228.449 69.898 227.102 77.773 228.602 83.625 230.852 86.023 231.824 86.176 235.199 85.875 243.977 82.727 253.574M28.051 234.523C26.477 233.551 25.273 232.051 24.676 230.324 25.648 230.023 26.773 229.648 27.977 229.273 27.676 230.699 27.523 232.727 28.051 234.523M19.727 213.449 19.574 213.301 19.648 213.074C19.648 213 20.023 211.949 20.625 211.125 20.25 210.449 20.102 209.625 20.324 208.875 20.551 208.199 21.074 207.602 21.676 207.301 21.75 207.301 21.824 207.227 21.898 207.227 21.824 206.176 22.199 205.125 22.199 205.051L22.273 204.824H22.5C22.574 204.824 23.699 204.824 24.676 205.199 25.199 204.602 25.949 204.227 26.773 204.227 27.602 204.227 28.352 204.602 28.875 205.199 29.852 204.824 30.977 204.824 31.051 204.824H31.273L31.352 205.051C31.352 205.125 31.727 206.176 31.648 207.227 31.727 207.227 31.801 207.301 31.801 207.301 32.477 207.602 32.926 208.199 33.148 208.875 33.375 209.699 33.301 210.523 32.852 211.125 33.523 211.949 33.824 213 33.898 213.074L33.977 213.301 33.824 213.449C33.75 213.449 32.852 214.199 31.875 214.426 31.801 215.176 31.426 215.926 30.75 216.449 30.227 216.824 29.699 216.977 29.102 216.977 28.875 216.977 28.648 216.977 28.426 216.898 27.898 217.801 26.926 218.398 26.926 218.477L26.773 218.625 26.625 218.477C26.551 218.477 25.648 217.801 25.051 216.898 24.824 216.977 24.602 216.977 24.449 216.977 23.926 216.977 23.324 216.824 22.801 216.449 22.125 215.926 21.75 215.25 21.676 214.426 20.699 214.199 19.801 213.523 19.727 213.449M55.727 236.551C55.801 236.398 57.301 233.176 58.273 230.852 59.102 228.75 57.449 226.648 56.324 225.523 60.148 225.676 63.75 226.051 67.125 226.574 67.574 227.023 68.102 227.398 68.176 227.773 65.102 227.477 63.449 228.148 63.602 229.273 63.676 229.727 64.352 229.875 64.949 229.727 65.477 229.648 67.801 229.426 69.523 230.699 70.273 231.301 70.801 232.273 70.875 233.625V233.699C70.875 233.852 70.875 233.926 70.875 234.074 70.949 236.176 69.977 238.051 68.023 239.551 61.727 244.5 58.051 243.824 57.523 243.676 55.801 242.625 54.977 241.199 54.977 239.324 55.125 237.898 55.727 236.625 55.727 236.551M52.648 230.25C53.176 230.477 54.602 231.375 54.977 232.352 55.125 232.727 54.824 233.176 54.676 233.551 54.148 234.602 53.773 235.5 53.699 235.574 53.551 235.801 52.875 237.301 52.801 239.25 52.727 240.523 52.949 242.176 54.148 243.676 54 243.676 53.926 243.676 53.926 243.676 52.801 243.602 51.676 243.75 51.148 243.824 50.625 243.824 50.398 243.602 50.176 243.301 49.5 242.324 48.375 241.426 46.648 240.977 44.551 240.375 41.773 239.625 39.523 239.023 35.102 237.824 36.301 235.199 35.25 235.273 34.199 235.352 34.727 237.148 35.176 237.824 33.375 237.449 32.477 236.773 32.477 236.773 29.25 234.148 29.398 231 30.074 228.75 36.148 227.102 44.398 225.523 53.551 225.523 53.625 225.523 53.773 225.523 53.852 225.523 54.898 226.352 57 228.375 56.25 230.023 56.176 230.176 56.176 230.25 56.102 230.398 54.75 229.5 53.398 228.977 53.176 228.824 52.574 228.602 52.051 228.523 51.898 228.977 51.676 229.5 52.125 229.949 52.648 230.25M36.227 203.023C36.227 202.949 36.301 202.801 36.375 202.727 36.449 202.648 36.602 202.648 36.676 202.648L37.5 202.801V201.074C37.5 200.926 37.574 200.852 37.648 200.773 37.727 200.699 37.875 200.699 38.023 200.699L38.773 200.926V199.648C38.773 199.352 38.926 199.051 39.227 198.898 39.375 198.824 39.523 198.824 39.602 198.824 39.75 198.824 39.898 198.898 40.051 198.977 40.199 199.051 40.273 199.125 40.426 199.199 41.023 199.574 41.699 200.023 43.648 200.477 44.176 200.625 44.926 200.699 45.676 200.852 46.949 201.074 48.449 201.375 49.801 201.75 51.449 202.273 52.574 202.875 53.176 203.699 53.324 203.852 53.324 204 53.324 204.227 53.324 204.074 53.398 203.852 53.477 203.699 54.148 202.875 55.199 202.273 56.852 201.75 58.199 201.375 59.699 201.074 60.977 200.852 61.727 200.699 62.477 200.551 63 200.477 64.949 200.023 65.625 199.574 66.227 199.199 66.375 199.125 66.449 199.051 66.602 198.977 66.75 198.898 66.898 198.824 67.051 198.824 67.199 198.824 67.352 198.824 67.426 198.898 67.648 199.051 67.875 199.352 67.875 199.648V200.926L68.625 200.699C68.773 200.625 68.852 200.699 69 200.773 69.074 200.852 69.148 200.926 69.148 201.074V202.801L69.977 202.648C70.051 202.648 70.199 202.648 70.273 202.727 70.352 202.801 70.426 202.875 70.426 203.023V216.898C70.426 218.25 69.449 218.773 66.977 218.625 58.574 218.398 55.426 220.574 55.426 220.574 55.426 221.324 54.602 221.852 53.398 221.852 52.125 221.852 51.375 221.398 51.375 220.574 51.375 220.574 48.227 218.398 39.824 218.625 37.352 218.773 36.375 218.176 36.375 216.898V203.023ZM89.102 201.074C88.5 200.773 73.199 193.801 53.324 193.801 33.449 193.801 18.148 200.773 17.551 201.074L16.352 201.676V233.773C16.5 238.125 17.176 246.074 20.102 254.852 25.727 272.023 37.051 283.875 52.875 289.125 53.102 289.199 53.324 289.199 53.551 289.199 53.773 289.199 54 289.199 54.227 289.125 70.051 283.875 81.375 272.023 86.852 254.852 89.625 246.148 90.301 238.199 90.449 233.852V201.75ZM89.102 201.074" fill="#00557f"/>
<path transform="matrix(1,0,0,1,-16,-193)" d="M25.051 207.898C25.051 207.898 24.824 207.602 24.824 207 24.824 205.875 25.727 205.051 26.773 205.051 27.898 205.051 28.727 205.949 28.727 207 28.727 207.602 28.5 207.898 28.5 207.898L27.676 209.023C27.523 208.949 27.301 208.875 27.074 208.875V208.051C27.074 207.898 26.926 207.75 26.773 207.75 26.625 207.75 26.477 207.898 26.477 208.051V208.875C26.25 208.875 26.102 208.949 25.875 209.023ZM28.727 210.074 29.551 209.852C29.699 209.773 29.926 209.926 29.926 210.074 30 210.227 29.926 210.449 29.699 210.449L28.875 210.676C28.875 210.75 28.875 210.898 28.875 210.977 28.875 211.051 28.875 211.199 28.875 211.273L30.227 211.727C30.227 211.727 30.602 211.875 31.199 211.648 32.25 211.273 32.773 210.227 32.477 209.176 32.324 208.648 31.949 208.273 31.5 208.051 31.051 207.824 30.523 207.75 30 207.898 29.398 208.051 29.176 208.352 29.176 208.426L28.352 209.625C28.5 209.699 28.574 209.852 28.727 210.074M29.551 207.227C29.625 207.227 29.699 207.148 29.773 207.148 30.227 207 30.602 207 31.051 207.074 31.051 206.477 30.898 205.875 30.824 205.5 30.523 205.5 29.852 205.574 29.25 205.801 29.477 206.176 29.551 206.625 29.551 207.074 29.551 207.074 29.551 207.148 29.551 207.227M23.852 207.148C23.926 207.148 24 207.227 24.074 207.227 24.074 207.148 24.074 207.074 24.074 207 24.074 206.551 24.148 206.102 24.375 205.727 23.773 205.5 23.176 205.5 22.801 205.5 22.727 205.801 22.574 206.477 22.574 207.074 23.023 207 23.398 207 23.852 207.148M22.352 211.648C22.875 211.801 23.25 211.727 23.324 211.727L24.676 211.273C24.676 211.199 24.676 211.051 24.676 210.977 24.676 210.898 24.676 210.75 24.676 210.676L23.852 210.449C23.699 210.375 23.625 210.227 23.625 210.074 23.699 209.926 23.852 209.852 24 209.852L24.824 210.074C24.898 209.852 25.051 209.699 25.199 209.551L24.375 208.352C24.375 208.352 24.148 208.051 23.551 207.824 23.324 207.75 23.176 207.75 22.949 207.75 22.648 207.75 22.352 207.824 22.051 207.977 21.602 208.199 21.227 208.648 21.074 209.102 20.773 210.148 21.375 211.273 22.352 211.648M26.023 215.398C26.398 214.949 26.398 214.574 26.398 214.5V213.074C26.176 213 26.023 213 25.801 212.852L25.273 213.523C25.199 213.602 25.125 213.676 25.051 213.676 24.977 213.676 24.898 213.676 24.824 213.602 24.676 213.523 24.676 213.301 24.75 213.148L25.273 212.477C25.125 212.324 24.977 212.176 24.898 211.949L23.551 212.398C23.551 212.398 23.176 212.551 22.801 213 22.125 213.898 22.352 215.102 23.25 215.773 24.148 216.449 25.426 216.301 26.023 215.398M52.5 219.75V204.301C52.5 203.852 50.398 202.426 45.676 201.824 40.949 201.148 39.602 199.727 39.602 199.727V216.375C40.426 217.051 40.574 216.977 45.977 217.574 51.676 218.25 52.5 219.75 52.5 219.75M60.676 217.574C66.148 216.977 66.301 217.051 67.051 216.375V199.727C67.051 199.727 65.699 201.148 60.977 201.824 56.25 202.5 54.148 203.926 54.148 204.301V219.75C54.148 219.75 54.977 218.25 60.676 217.574M22.199 212.625C22.273 212.551 22.273 212.477 22.352 212.477 22.273 212.477 22.199 212.477 22.125 212.398 21.676 212.25 21.301 212.023 21 211.727 20.625 212.176 20.398 212.773 20.25 213.148 20.551 213.301 21.074 213.676 21.676 213.824 21.824 213.375 21.977 213 22.199 212.625M26.926 215.852C26.852 215.773 26.852 215.699 26.773 215.699 26.773 215.773 26.699 215.852 26.625 215.852 26.324 216.227 26.023 216.523 25.648 216.676 26.023 217.199 26.477 217.574 26.773 217.801 27.074 217.574 27.523 217.199 27.898 216.676 27.523 216.523 27.148 216.227 26.926 215.852M31.426 212.398C31.352 212.398 31.273 212.477 31.199 212.477 31.273 212.551 31.273 212.551 31.352 212.625 31.648 213 31.801 213.375 31.875 213.824 32.477 213.676 33 213.301 33.301 213.148 33.148 212.852 32.926 212.25 32.551 211.727 32.25 212.023 31.875 212.25 31.426 212.398M30.074 212.477C30 212.477 30 212.477 30.074 212.477L28.727 212.023C28.648 212.176 28.5 212.398 28.352 212.551L28.875 213.227C28.949 213.375 28.949 213.602 28.801 213.676 28.727 213.75 28.648 213.75 28.574 213.75 28.5 213.75 28.352 213.676 28.352 213.602L27.824 212.926C27.676 213 27.449 213.074 27.227 213.148V214.648C27.227 214.648 27.227 215.023 27.602 215.551 28.273 216.449 29.477 216.602 30.375 216 31.273 215.324 31.426 214.125 30.824 213.227 30.375 212.551 30.074 212.477 30.074 212.477M26.773 212.625C27.676 212.625 28.426 211.875 28.426 210.977 28.426 210.074 27.676 209.324 26.773 209.324 25.875 209.324 25.125 210.074 25.125 210.977 25.125 211.875 25.875 212.625 26.773 212.625M83.102 212.477 81.75 212.023C81.676 212.176 81.523 212.398 81.375 212.551L81.898 213.227C81.977 213.375 81.977 213.602 81.824 213.676 81.75 213.75 81.676 213.75 81.602 213.75 81.523 213.75 81.375 213.676 81.375 213.602L80.852 212.926C80.699 213 80.477 213.074 80.25 213.148V214.648C80.25 214.648 80.25 215.023 80.625 215.551 81.301 216.449 82.5 216.602 83.398 216 84.301 215.324 84.449 214.125 83.852 213.227 83.477 212.551 83.102 212.477 83.102 212.477M85.5 209.176C85.352 208.648 84.977 208.273 84.523 208.051 84.074 207.824 83.551 207.75 83.023 207.898 82.5 208.051 82.199 208.352 82.199 208.426L81.375 209.625C81.523 209.773 81.676 209.926 81.75 210.148L82.574 209.926C82.727 209.852 82.949 209.926 82.949 210.148 83.023 210.301 82.875 210.523 82.727 210.523L81.898 210.824C81.898 210.898 81.898 211.051 81.898 211.125 81.898 211.199 81.898 211.352 81.898 211.426L83.25 211.875C83.25 211.875 83.625 211.949 84.227 211.801 85.273 211.273 85.875 210.148 85.5 209.176M79.949 215.852C79.875 215.773 79.875 215.699 79.801 215.699 79.801 215.773 79.727 215.852 79.648 215.852 79.352 216.227 79.051 216.523 78.676 216.676 79.051 217.199 79.5 217.574 79.801 217.801 80.102 217.574 80.551 217.199 80.926 216.676 80.551 216.523 80.25 216.227 79.949 215.852M84.523 212.398C84.449 212.398 84.375 212.477 84.301 212.477 84.375 212.551 84.375 212.551 84.449 212.625 84.75 213 84.898 213.375 84.977 213.824 85.574 213.676 86.102 213.301 86.398 213.148 86.25 212.852 86.023 212.25 85.648 211.727 85.273 212.023 84.898 212.25 84.523 212.398M79.125 215.398C79.5 214.949 79.5 214.574 79.5 214.5V213.074C79.273 213 79.125 213 78.898 212.852L78.375 213.523C78.301 213.602 78.227 213.676 78.148 213.676 78.074 213.676 78 213.676 77.926 213.602 77.773 213.523 77.773 213.301 77.852 213.148L78.375 212.477C78.227 212.324 78.074 212.176 78 211.949L76.648 212.398C76.648 212.398 76.273 212.551 75.898 213 75.227 213.898 75.449 215.102 76.352 215.773 77.25 216.449 78.449 216.301 79.125 215.398M78.227 210.977C78.227 211.875 78.977 212.625 79.875 212.625 80.773 212.625 81.523 211.875 81.523 210.977 81.523 210.074 80.773 209.324 79.875 209.324 78.977 209.324 78.227 210.074 78.227 210.977M76.352 211.727 77.699 211.273C77.699 211.199 77.699 211.051 77.699 210.977 77.699 210.898 77.699 210.75 77.699 210.676L76.875 210.449C76.727 210.375 76.648 210.227 76.648 210.074 76.727 209.926 76.875 209.852 77.023 209.852L77.852 210.074C77.926 209.926 78.074 209.699 78.227 209.551L77.398 208.352C77.398 208.352 77.176 208.051 76.574 207.824 76.352 207.75 76.199 207.75 75.977 207.75 75.676 207.75 75.375 207.824 75.074 207.977 74.625 208.199 74.25 208.648 74.102 209.102 73.727 210.148 74.324 211.273 75.375 211.574 75.977 211.801 76.352 211.727 76.352 211.727M78.898 209.102C79.051 209.023 79.273 208.949 79.5 208.949V208.125C79.5 207.977 79.648 207.824 79.801 207.824 79.949 207.824 80.102 207.977 80.102 208.125V208.949C80.324 208.949 80.477 209.023 80.699 209.102L81.523 207.977C81.523 207.977 81.75 207.676 81.75 207.074 81.75 205.949 80.852 205.125 79.801 205.125 78.676 205.125 77.852 206.023 77.852 207.074 77.852 207.676 78.074 207.977 78.074 207.977ZM82.574 207.227C82.648 207.227 82.727 207.148 82.801 207.148 83.25 207 83.625 207 84.074 207.074 84.074 206.477 83.926 205.875 83.852 205.5 83.551 205.5 82.875 205.574 82.273 205.801 82.5 206.176 82.574 206.625 82.574 207.074 82.574 207.074 82.574 207.148 82.574 207.227M74.102 211.727C73.727 212.176 73.5 212.773 73.352 213.148 73.648 213.301 74.176 213.676 74.773 213.824 74.852 213.375 75 213 75.301 212.625 75.375 212.551 75.375 212.477 75.449 212.477 75.375 212.477 75.301 212.477 75.227 212.398 74.773 212.25 74.398 212.023 74.102 211.727M76.875 207.148C76.949 207.148 77.023 207.227 77.102 207.227 77.102 207.148 77.102 207.074 77.102 207 77.102 206.551 77.176 206.102 77.398 205.727 76.801 205.5 76.199 205.5 75.824 205.5 75.75 205.801 75.602 206.477 75.602 207.074 76.051 207 76.5 207 76.875 207.148" fill="#00557f"/>
</g>
</g>
</svg>
